<?xml version="1.0" encoding="utf-8"?>
<svg version="1.1" xmlns:xlink="http://www.w3.org/1999/xlink" width="460px" height="225px" xmlns="http://www.w3.org/2000/svg">
  <g transform="matrix(1 0 0 1 -550 -360 )">
    <path d="M 780 360  C 908.8 360  1010 409.5  1010 472.5  C 1010 535.5  908.8 585  780 585  C 651.2 585  550 535.5  550 472.5  C 550 409.5  651.2 360  780 360  Z " fill-rule="nonzero" fill="#ffffff" stroke="none" />
    <path d="M 780 360.5  C 908.52 360.5  1009.5 409.78  1009.5 472.5  C 1009.5 535.22  908.52 584.5  780 584.5  C 651.48 584.5  550.5 535.22  550.5 472.5  C 550.5 409.78  651.48 360.5  780 360.5  Z " stroke-width="1" stroke="#797979" fill="none" />
  </g>
</svg>