<?xml version="1.0" encoding="utf-8"?>
<svg version="1.1" xmlns:xlink="http://www.w3.org/1999/xlink" width="90px" height="70px" xmlns="http://www.w3.org/2000/svg">
  <g transform="matrix(1 0 0 1 -1140 -55 )">
    <path d="M 83.0943080357143 63.1640625  C 83.4123883928572 62.8491950757576  83.5714285714286 62.4763257575758  83 62.0454545454545  L 83 23.8636363636364  C 82.5 25.0568181818182  81.3448660714286 26.1505681818182  80.1060267857143 27.1448863636364  C 71.1328125 33.9725378787879  64.0011160714286 39.5738636363636  58.7109375 43.9488636363636  C 57.0033482142857 45.374053030303  55.6138392857143 46.484375  54.5424107142857 47.2798295454545  C 53.4709821428571 48.0752840909091  52.0228794642857 48.8790246212121  50.1981026785714 49.6910511363636  C 48.3733258928571 50.5030776515151  46.6573660714286 50.9090909090909  45.0502232142857 50.9090909090909  L 45 50.9090909090909  L 44.9497767857143 50.9090909090909  C 43.3426339285714 50.9090909090909  41.6266741071429 50.5030776515151  39.8018973214286 49.6910511363636  C 37.9771205357143 48.8790246212121  36.5290178571429 48.0752840909091  35.4575892857143 47.2798295454545  C 34.3861607142857 46.484375  32.9966517857143 45.374053030303  31.2890625 43.9488636363636  C 25.9988839285714 39.5738636363636  18.8671875 33.9725378787879  9.89397321428571 27.1448863636364  C 8.65513392857143 26.1505681818182  7.5 25.0568181818182  7 23.8636363636364  L 7 62.0454545454545  C 6.42857142857143 62.4763257575758  6.58761160714286 62.8491950757576  6.90569196428571 63.1640625  C 7.22377232142857 63.4789299242424  7.60044642857143 63.6363636363636  8.03571428571429 63  L 81.9642857142857 63  C 82.3995535714286 63.6363636363636  82.7762276785714 63.4789299242424  83.0943080357143 63.1640625  Z M 81.2360491071429 16.3316761363636  C 82.79296875 13.928740530303  83.5714285714286 11.7495265151515  83.5714285714286 9.79403409090909  L 83.5714285714286 9.24715909090909  L 83.5714285714286 8.57599431818182  C 83.5714285714286 8.57599431818182  83.5630580357143 8.3605587121212  83.5463169642857 7.9296875  C 83.5295758928571 7.49881628787878  83.4793526785714 7.29166666666666  83.3956473214286 7.30823863636363  C 83.3119419642857 7.3248106060606  83.2198660714286 7.17566287878787  83.1194196428571 6.86079545454546  C 83.0189732142857 6.54592803030302  82.8683035714286 6.42163825757575  82.6674107142857 6.48792613636363  C 82.4665178571429 6.55421401515151  82.2321428571429 6.51278409090909  81.9642857142857 7  L 8.03571428571429 7  C 7.60044642857143 6.36363636363637  7.22377232142857 6.52107007575757  6.90569196428571 6.8359375  C 6.58761160714286 7.15080492424242  6.42857142857143 7.52367424242424  6.42857142857143 7.95454545454546  C 6.42857142857143 13.5227272727273  8.88950892857143 18.2291666666667  13.8113839285714 22.0738636363636  C 20.2734375 27.1117424242424  26.9866071428571 32.3650568181818  33.9508928571429 37.8338068181818  C 34.1517857142857 37.9995265151515  34.7377232142857 38.4883996212121  35.7087053571429 39.3004261363636  C 36.6796875 40.1124526515151  37.4497767857143 40.7339015151515  38.0189732142857 41.1647727272727  C 38.5881696428572 41.5956439393939  39.3331473214286 42.1176609848485  40.25390625 42.7308238636364  C 41.1746651785714 43.3439867424242  42.0200892857143 43.7997159090909  42.7901785714286 44.0980113636364  C 43.5602678571429 44.3963068181818  44.2801339285714 44.5454545454545  44.9497767857143 44.5454545454545  L 45 44.5454545454545  L 45.0502232142857 44.5454545454545  C 45.7198660714286 44.5454545454545  46.4397321428571 44.3963068181818  47.2098214285714 44.0980113636364  C 47.9799107142857 43.7997159090909  48.8253348214286 43.3439867424242  49.74609375 42.7308238636364  C 50.6668526785714 42.1176609848485  51.4118303571429 41.5956439393939  51.9810267857143 41.1647727272727  C 52.5502232142857 40.7339015151515  53.3203125 40.1124526515151  54.2912946428571 39.3004261363636  C 55.2622767857143 38.4883996212121  55.8482142857143 37.9995265151515  56.0491071428571 37.8338068181818  C 63.0133928571429 32.3650568181818  69.7265625 27.1117424242424  76.1886160714286 22.0738636363636  C 77.9966517857143 20.6486742424242  79.6791294642857 18.7346117424242  81.2360491071429 16.3316761363636  Z M 87.6395089285714 2.33664772727272  C 89.2131696428572 3.89441287878787  90 5.76704545454546  90 7.95454545454546  L 90 62.0454545454545  C 90 64.2329545454545  89.2131696428572 66.1055871212121  87.6395089285714 67.6633522727273  C 86.0658482142857 69.2211174242424  84.1741071428572 70  81.9642857142857 70  L 8.03571428571429 70  C 5.82589285714286 70  3.93415178571429 69.2211174242424  2.36049107142857 67.6633522727273  C 0.786830357142857 66.1055871212121  0 64.2329545454545  0 62.0454545454545  L 0 7.95454545454546  C 0 5.76704545454546  0.786830357142857 3.89441287878787  2.36049107142857 2.33664772727272  C 3.93415178571429 0.778882575757567  5.82589285714286 0  8.03571428571429 0  L 81.9642857142857 0  C 84.1741071428572 0  86.0658482142857 0.778882575757567  87.6395089285714 2.33664772727272  Z " fill-rule="nonzero" fill="#000000" stroke="none" transform="matrix(1 0 0 1 1140 55 )" />
  </g>
</svg>