<?xml version="1.0" encoding="utf-8"?>
<svg version="1.1" xmlns:xlink="http://www.w3.org/1999/xlink" width="90px" height="90px" xmlns="http://www.w3.org/2000/svg">
  <g transform="matrix(1 0 0 1 -1140 -35 )">
    <path d="M 72.9743303571429 45.2260044642857  C 73.4095982142857 45.2762276785714  73.7611607142857 45.4854910714286  74.0290178571429 45.8537946428571  L 75.9877232142857 48.4151785714286  C 76.2555803571429 48.7834821428571  76.3643973214286 49.1768973214286  76.3141741071429 49.5954241071429  C 76.2639508928571 50.0139508928571  76.0714285714286 50.3571428571429  75.7366071428571 50.625  C 74.296875 51.7633928571429  72.1791294642857 53.4123883928571  69.3833705357143 55.5719866071429  C 66.5876116071429 57.7315848214286  64.1350446428571 59.6233258928571  62.0256696428571 61.2472098214286  C 59.9162946428571 62.87109375  58.7946428571429 63.7332589285714  58.6607142857143 63.8337053571429  C 57.3549107142857 64.9051339285714  56.3504464285714 65.7087053571429  55.6473214285714 66.2444196428572  C 54.9441964285714 66.7801339285714  53.9313616071429 67.4665178571429  52.6088169642857 68.3035714285714  C 51.2862723214286 69.140625  50.0055803571429 69.7516741071429  48.7667410714286 70.13671875  C 47.5279017857143 70.5217633928571  46.2890625 70.7142857142857  45.0502232142857 70.7142857142857  L 45 70.7142857142857  L 44.9497767857143 70.7142857142857  C 43.7109375 70.7142857142857  42.4720982142857 70.5217633928571  41.2332589285714 70.13671875  C 39.9944196428571 69.7516741071429  38.7220982142857 69.140625  37.4162946428571 68.3035714285714  C 36.1104910714286 67.4665178571429  35.0892857142857 66.7717633928572  34.3526785714286 66.2193080357143  C 33.6160714285714 65.6668526785714  32.6116071428571 64.8716517857143  31.3392857142857 63.8337053571429  C 31.171875 63.6997767857143  30.0837053571429 62.8543526785714  28.0747767857143 61.2974330357143  C 26.0658482142857 59.7405133928571  23.6635044642857 57.8822544642857  20.8677455357143 55.72265625  C 18.0719866071429 53.5630580357143  16.0212053571429 51.9810267857143  14.7154017857143 50.9765625  C 14.3470982142857 50.7087053571429  14.1378348214286 50.3655133928571  14.0876116071429 49.9469866071429  C 14.0373883928571 49.5284598214286  14.1462053571429 49.1350446428571  14.4140625 48.7667410714286  L 16.2723214285714 46.1551339285714  C 16.5401785714286 45.7868303571429  16.9001116071429 45.5691964285714  17.3521205357143 45.5022321428571  C 17.8041294642857 45.4352678571429  18.2142857142857 45.5524553571429  18.5825892857143 45.8537946428571  C 21.7299107142857 48.2979910714286  26.8526785714286 52.2488839285714  33.9508928571429 57.7064732142857  C 34.1183035714286 57.8404017857143  34.8465401785714 58.4263392857143  36.1356026785714 59.4642857142857  C 37.4246651785714 60.5022321428571  38.4375 61.2806919642857  39.1741071428571 61.7996651785714  C 39.9107142857143 62.3186383928571  40.8565848214286 62.8627232142857  42.01171875 63.4319196428571  C 43.1668526785714 64.0011160714286  44.1462053571429 64.2857142857143  44.9497767857143 64.2857142857143  L 45 64.2857142857143  L 45.0502232142857 64.2857142857143  C 45.8537946428571 64.2857142857143  46.8331473214286 64.0011160714286  47.98828125 63.4319196428571  C 49.1434151785714 62.8627232142857  50.0892857142857 62.3186383928571  50.8258928571429 61.7996651785714  C 51.5625 61.2806919642857  52.5753348214286 60.5022321428571  53.8643973214286 59.4642857142857  C 55.1534598214286 58.4263392857143  55.8816964285714 57.8404017857143  56.0491071428571 57.7064732142857  C 64.6875 51.0770089285714  69.9274553571429 47.0256696428571  71.7689732142857 45.5524553571429  C 72.1372767857143 45.2845982142857  72.5390625 45.17578125  72.9743303571429 45.2260044642857  Z M 83.0943080357143 83.0943080357143  C 83.4123883928572 82.7762276785714  83.5714285714286 82.3995535714286  83 81.9642857142857  L 83 35.3571428571429  C 80.5580357142857 32.578125  77.8962053571429 30.2511160714286  75.5859375 28.3761160714286  C 72.5390625 25.8984375  66.0267857142857 20.8091517857143  56.0491071428571 13.1082589285714  C 55.9486607142857 13.0412946428571  55.2287946428571 12.4553571428571  53.8895089285714 11.3504464285714  C 52.5502232142857 10.2455357142857  51.5290178571429 9.44196428571429  50.8258928571429 8.93973214285714  C 50.1227678571429 8.4375  49.1852678571429 7.89341517857142  48.0133928571429 7.30747767857143  C 46.8415178571429 6.72154017857143  45.8537946428571 6.42857142857143  45.0502232142857 6.42857142857143  L 45 6.42857142857143  L 44.9497767857143 6.42857142857143  C 44.1462053571429 6.42857142857143  43.1584821428571 6.72154017857143  41.9866071428571 7.30747767857143  C 40.8147321428571 7.89341517857142  39.8772321428571 8.4375  39.1741071428571 8.93973214285714  C 38.4709821428571 9.44196428571429  37.4497767857143 10.2455357142857  36.1104910714286 11.3504464285714  C 34.7712053571429 12.4553571428571  34.0513392857143 13.0412946428571  33.9508928571429 13.1082589285714  C 26.7522321428571 18.6662946428571  21.4704241071429 22.7762276785714  18.10546875 25.4380580357143  C 14.7405133928571 28.0998883928571  12.5725446428571 29.8409598214286  11.6015625 30.6612723214286  C 10.6305803571429 31.4815848214286  9.2578125 32.7287946428571  7.48325892857143 34.4029017857143  C 7.01450892857143 34.8046875  6.66294642857143 35.1227678571429  7 35.3571428571429  L 7 81.9642857142857  C 6.42857142857143 82.3995535714286  6.58761160714286 82.7762276785714  6.90569196428571 83.0943080357143  C 7.22377232142857 83.4123883928571  7.60044642857143 83.5714285714286  8.03571428571429 83  L 81.9642857142857 83  C 82.3995535714286 83.5714285714286  82.7762276785714 83.4123883928571  83.0943080357143 83.0943080357143  Z M 87.9408482142857 30.6361607142857  C 89.3136160714286 31.9084821428571  90 33.4821428571428  90 35.3571428571429  L 90 81.9642857142857  C 90 84.1741071428571  89.2131696428572 86.0658482142857  87.6395089285714 87.6395089285714  C 86.0658482142857 89.2131696428571  84.1741071428572 90  81.9642857142857 90  L 8.03571428571429 90  C 5.82589285714286 90  3.93415178571429 89.2131696428571  2.36049107142857 87.6395089285714  C 0.786830357142857 86.0658482142857  0 84.1741071428571  0 81.9642857142857  L 0 35.3571428571429  C 0 33.4821428571428  0.686383928571429 31.9084821428571  2.05915178571429 30.6361607142857  C 6.17745535714286 26.8191964285714  12.0368303571429 21.9559151785714  19.6372767857143 16.0463169642857  C 27.2377232142857 10.13671875  31.1383928571429 7.09821428571428  31.3392857142857 6.93080357142857  C 32.5446428571429 5.92633928571429  33.5323660714286 5.13113839285714  34.3024553571429 4.54520089285714  C 35.0725446428571 3.95926339285714  36.1021205357143 3.25613839285714  37.3911830357143 2.43582589285714  C 38.6802455357143 1.61551339285714  39.9525669642857 1.00446428571429  41.2081473214286 0.602678571428574  C 42.4637276785714 0.200892857142861  43.7109375 0  44.9497767857143 0  L 45 0  L 45.0502232142857 0  C 46.2890625 0  47.5362723214286 0.200892857142861  48.7918526785714 0.602678571428574  C 50.0474330357143 1.00446428571429  51.3197544642857 1.61551339285714  52.6088169642857 2.43582589285714  C 53.8978794642857 3.25613839285714  54.9274553571429 3.95926339285714  55.6975446428571 4.54520089285714  C 56.4676339285714 5.13113839285714  57.4553571428571 5.92633928571429  58.6607142857143 6.93080357142857  C 60.1004464285714 8.13616071428571  62.7120535714286 10.1785714285714  66.4955357142857 13.0580357142857  C 70.2790178571429 15.9375  74.0625 18.9006696428571  77.8459821428571 21.9475446428571  C 81.6294642857143 24.9944196428571  84.9944196428572 27.890625  87.9408482142857 30.6361607142857  Z " fill-rule="nonzero" fill="#000000" stroke="none" transform="matrix(1 0 0 1 1140 35 )" />
  </g>
</svg>